<?xml version="1.0" standalone="no"?>
<!DOCTYPE svg PUBLIC "-//W3C//DTD SVG 20010904//EN"
 "http://www.w3.org/TR/2001/REC-SVG-20010904/DTD/svg10.dtd">
<svg version="1.0" xmlns="http://www.w3.org/2000/svg"
 width="104.000000pt" height="104.000000pt" viewBox="0 0 104.000000 104.000000"
 preserveAspectRatio="xMidYMid meet">
<metadata>
Created by potrace 1.14, written by Peter Selinger 2001-2017
</metadata>
<g transform="translate(0.000000,104.000000) scale(0.100000,-0.100000)"
fill="#000000" stroke="none">
<path d="M528 1014 c-5 -4 -41 -8 -80 -9 -58 -2 -84 -8 -128 -31 -68 -35 -166
-132 -203 -202 -36 -67 -77 -213 -77 -275 0 -51 24 -115 46 -124 7 -2 16 -23
19 -46 10 -59 32 -96 62 -108 l26 -10 -21 -15 c-32 -22 -27 -34 15 -34 l36 0
-22 -24 c-25 -26 -41 -96 -22 -96 6 0 14 7 17 15 9 23 20 18 43 -20 23 -40 57
-49 45 -12 -7 22 -6 22 15 3 22 -20 24 -18 21 27 -2 38 16 58 46 51 17 -4 24
-2 24 9 0 8 10 17 23 20 12 3 51 12 87 21 36 8 76 18 89 22 19 6 23 4 19 -8
-4 -8 -2 -21 3 -29 7 -11 14 -7 38 19 34 36 52 41 44 12 -8 -30 12 -24 42 13
l26 32 -7 -27 c-4 -17 -2 -28 4 -28 15 0 61 58 68 86 7 29 15 30 39 4 23 -25
50 -27 40 -2 -17 44 -15 80 9 145 14 37 26 88 26 114 0 25 3 44 6 40 3 -3 6
-22 6 -41 0 -40 7 -44 31 -18 18 20 24 112 8 112 -5 0 -12 10 -15 23 -3 12
-20 45 -38 72 -17 28 -44 75 -60 106 -36 71 -121 152 -195 186 -58 27 -142 41
-155 27z m-62 -380 c6 -41 -2 -98 -22 -163 -6 -21 -5 -22 14 -12 24 13 48 53
67 115 l13 41 1 -48 c1 -39 -4 -53 -21 -69 -23 -19 -23 -19 -2 -15 17 3 20 0
17 -14 -3 -10 -14 -25 -24 -35 -26 -24 -24 -39 3 -20 12 9 32 16 43 16 15 -1
13 -4 -10 -14 -33 -14 -61 -43 -52 -53 4 -3 13 0 22 7 13 10 15 9 15 -10 0
-15 4 -20 15 -17 8 4 17 2 20 -3 3 -5 12 -7 19 -4 8 3 17 1 21 -5 10 -17 -21
-24 -44 -11 -23 12 -28 1 -9 -18 40 -40 107 20 87 76 -7 18 -5 22 12 22 37 0
33 -32 -19 -132 -8 -17 23 -7 45 14 24 22 33 13 11 -11 -11 -11 -9 -13 10 -8
39 9 9 -16 -60 -50 -86 -43 -173 -59 -235 -44 -59 15 -163 61 -163 72 0 5 7 6
15 3 18 -7 20 7 3 24 -9 9 -8 12 7 12 17 0 17 2 -3 23 -23 25 -44 81 -34 91
16 17 28 4 24 -26 -4 -26 -2 -30 11 -25 9 3 19 2 23 -4 3 -6 12 -8 20 -5 17 6
28 -10 13 -19 -6 -4 -16 -2 -22 4 -15 15 -27 14 -27 -4 0 -8 12 -18 27 -21 36
-10 67 27 59 71 -5 28 -5 29 9 11 8 -11 18 -17 21 -13 9 9 -5 27 -40 48 -17
10 -24 19 -16 19 9 0 26 -7 38 -16 12 -8 22 -11 22 -6 0 17 -35 41 -65 45 -28
3 -41 22 -44 64 -1 17 67 -24 80 -48 5 -11 16 -19 24 -19 11 0 12 6 3 31 -6
17 -11 66 -12 108 l-1 76 35 6 c19 4 38 7 42 8 4 0 10 -19 14 -45z m200 -170
l13 -31 -45 -1 c-33 0 -44 4 -44 15 0 10 -6 14 -20 10 -11 -3 -20 -2 -20 2 0
15 32 51 46 51 16 0 19 17 3 22 -6 2 -8 14 -3 32 l7 29 25 -49 c14 -27 31 -63
38 -80z m-416 -4 l21 -30 -25 0 c-22 0 -26 4 -26 30 0 17 2 30 4 30 3 0 14
-13 26 -30z m607 -92 c-3 -8 -6 -5 -6 6 -1 11 2 17 5 13 3 -3 4 -12 1 -19z
m-27 -57 c-11 -21 -30 -37 -30 -25 0 8 30 44 37 44 2 0 -1 -9 -7 -19z"/>
</g>
</svg>
