<svg width="129" height="129" viewBox="0 0 129 129" fill="none" xmlns="http://www.w3.org/2000/svg">
<g clip-path="url(#clip0)">
<path fill-rule="evenodd" clip-rule="evenodd" d="M2.76854 60.7627C2.76854 32.1785 25.9407 9.00635 54.5249 9.00635H76.5961C105.18 9.00635 128.352 32.1785 128.352 60.7627C128.352 89.347 105.18 112.519 76.596 112.519H54.5249C51.644 112.519 48.8181 112.284 46.0653 111.831C42.2998 114.696 37.5054 117.571 31.8774 119.976C22.5691 123.954 12.2682 123.182 4.49162 120.854C2.35935 120.216 0.144102 118.98 0.368238 117.259C0.628229 115.261 2.21301 114.709 4.02257 114.079L4.02319 114.079C4.17792 114.025 4.33429 113.971 4.49162 113.915C8.39579 112.525 11.3106 110.452 15.1373 106.001C16.944 103.899 18.4538 101.539 19.6994 99.0504C9.29757 89.5836 2.76854 75.9356 2.76854 60.7627ZM66.2953 31.8016V64.32C64.3773 63.2147 60.9377 62.2375 58.5741 62.4496C49.857 63.2319 46.8477 69.3511 46.8477 76.5354C46.8477 83.7197 52.5711 88.465 58.5741 88.465C67.5638 88.465 73.3596 82.9219 72.7969 71.2382V44.8049L85.8002 53.694V40.6907L72.7969 31.8016H66.2953Z" fill="url(#paint0_linear)"/>
</g>
<defs>
<linearGradient id="paint0_linear" x1="-4.31664" y1="5.58159" x2="141.206" y2="31.9779" gradientUnits="userSpaceOnUse">
<stop stop-color="#FE9A9A"/>
<stop offset="1" stop-color="#FF8097"/>
</linearGradient>
<clipPath id="clip0">
<rect width="128" height="128" fill="white" transform="translate(0.352539 0.183105)"/>
</clipPath>
</defs>
</svg>
