<svg width="129" height="128" viewBox="0 0 129 128" fill="none" xmlns="http://www.w3.org/2000/svg">
<g clip-path="url(#clip0)">
<path fill-rule="evenodd" clip-rule="evenodd" d="M2.76854 60.5794C2.76854 31.9951 25.9407 8.823 54.525 8.823H76.5961C105.18 8.823 128.353 31.9951 128.353 60.5794C128.353 89.1637 105.18 112.336 76.5961 112.336H54.525C51.6441 112.336 48.8182 112.1 46.0654 111.648C42.2998 114.512 37.5055 117.388 31.8774 119.793C22.5692 123.771 12.2682 122.999 4.49162 120.671C2.35935 120.032 0.144102 118.797 0.368238 117.075C0.628229 115.078 2.21302 114.526 4.02258 113.896L4.02318 113.896C4.17792 113.842 4.33429 113.787 4.49162 113.731C8.3958 112.342 11.3106 110.269 15.1373 105.818C16.944 103.716 18.4538 101.356 19.6994 98.8671C9.29759 89.4003 2.76854 75.7523 2.76854 60.5794ZM66.2952 31.6183V64.1367C64.3772 63.0314 60.9376 62.0542 58.574 62.2663C49.8569 63.0486 46.8476 69.1678 46.8476 76.3521C46.8476 83.5364 52.571 88.2817 58.574 88.2817C67.5637 88.2817 73.3595 82.7386 72.7968 71.0549V44.6216L85.8001 53.5107V40.5074L72.7968 31.6183H66.2952Z" fill="white"/>
</g>
<defs>
<clipPath id="clip0">
<rect width="128" height="128" fill="white" transform="translate(0.352539)"/>
</clipPath>
</defs>
</svg>
