<svg width="524" height="524" viewBox="0 0 524 524" fill="none" xmlns="http://www.w3.org/2000/svg">
<g clip-path="url(#clip0)">
<g filter="url(#filter0_d)">
<path fill-rule="evenodd" clip-rule="evenodd" d="M69.8107 252.989C69.8107 163.784 142.126 91.4692 231.331 91.4692H300.21C389.414 91.4692 461.729 163.784 461.729 252.989C461.729 342.194 389.414 414.509 300.209 414.509H231.33C222.34 414.509 213.521 413.774 204.93 412.362C193.178 421.301 178.216 430.276 160.652 437.781C131.604 450.195 99.4566 447.786 75.1877 440.52C68.5334 438.528 61.6201 434.673 62.3196 429.3C63.131 423.067 68.0767 421.344 73.7238 419.378C74.2074 419.209 74.6961 419.039 75.1877 418.864C87.3718 414.529 96.4681 408.059 108.41 394.167C114.049 387.608 118.761 380.242 122.648 372.476C90.1862 342.932 69.8107 300.34 69.8107 252.989ZM268.063 162.608V264.09C262.077 260.641 251.343 257.592 243.967 258.254C216.763 260.695 207.371 279.791 207.371 302.212C207.371 324.633 225.233 339.441 243.967 339.441C272.022 339.441 290.109 322.143 288.353 285.681V203.188L328.933 230.929V190.349L288.353 162.608H268.063Z" fill="url(#paint0_linear)"/>
</g>
</g>
<defs>
<filter id="filter0_d" x="-37.7294" y="-8.53076" width="599.459" height="555.062" filterUnits="userSpaceOnUse" color-interpolation-filters="sRGB">
<feFlood flood-opacity="0" result="BackgroundImageFix"/>
<feColorMatrix in="SourceAlpha" type="matrix" values="0 0 0 0 0 0 0 0 0 0 0 0 0 0 0 0 0 0 127 0" result="hardAlpha"/>
<feOffset/>
<feGaussianBlur stdDeviation="50"/>
<feComposite in2="hardAlpha" operator="out"/>
<feColorMatrix type="matrix" values="0 0 0 0 0.996078 0 0 0 0 0.556863 0 0 0 0 0.6 0 0 0 0.3 0"/>
<feBlend mode="normal" in2="BackgroundImageFix" result="effect1_dropShadow"/>
<feBlend mode="normal" in="SourceGraphic" in2="effect1_dropShadow" result="shape"/>
</filter>
<linearGradient id="paint0_linear" x1="47.6992" y1="80.7814" x2="501.843" y2="163.158" gradientUnits="userSpaceOnUse">
<stop stop-color="#FE9A9A"/>
<stop offset="1" stop-color="#FF8097"/>
</linearGradient>
<clipPath id="clip0">
<rect width="524" height="524" fill="white"/>
</clipPath>
</defs>
</svg>
