<svg width="318" height="408" viewBox="0 0 318 408" fill="none" xmlns="http://www.w3.org/2000/svg">
<g opacity="0.2">
<path fill-rule="evenodd" clip-rule="evenodd" d="M138.686 1.91758C134.836 2.87658 129.491 4.64358 126.809 5.84359C124.126 7.04359 121.381 8.02558 120.708 8.02558C118.744 8.02558 107.086 17.2986 102.186 22.7576C99.7106 25.5146 96.3666 29.9236 94.7546 32.5556C85.1206 48.2836 77.2956 77.2186 75.4946 103.776L74.9346 112.026L67.8106 112.068C58.9656 112.119 39.7096 116.005 35.6846 118.55C21.8686 127.287 17.7266 132.64 11.5616 149.723C6.06463 164.957 5.31063 168.285 3.00863 187.526C-0.00436568 212.7 -0.280367 265.077 2.53163 278.026C6.69763 297.209 11.4466 306.683 20.4856 313.847C23.8956 316.55 28.5726 319.717 30.8796 320.885C37.3266 324.151 49.3766 327.823 58.2036 329.211C67.3986 330.658 66.6306 329.296 67.6806 346.026C68.0086 351.251 68.9316 358.366 69.7316 361.838C70.5316 365.31 71.1856 369.29 71.1856 370.684C71.1856 374.603 80.0656 390.004 85.2426 395.065C87.7956 397.561 92.8736 401.075 96.5246 402.872C102.366 405.748 104.702 406.266 115.926 407.177C142.703 409.352 155.202 406.776 165.083 397.048C170.982 391.24 173.345 386.083 176.157 372.884C177.074 368.582 179.138 338.806 179.171 329.413L179.186 325.299L183.936 326.089C186.549 326.523 191.228 327.163 194.335 327.511L199.983 328.145L199.896 338.835C199.734 358.831 204.083 372.13 213.6 380.734C221.593 387.96 234.501 392.954 245.186 392.955C257.502 392.957 274.13 386.296 282.011 378.206C289.632 370.381 298.195 349.459 301.115 331.526C305.559 304.232 308.362 260.211 307.078 237.883C306.624 229.986 305.826 212.102 305.304 198.14L304.356 172.755L308.181 167.14C316.949 154.272 320.297 132.587 315.685 118.526C314.963 116.326 313.429 111.474 312.276 107.744C307.335 91.7646 299.407 81.2006 287.212 74.3446C283.177 72.0766 282.218 70.9856 281.691 68.0626C281.34 66.1176 277.86 58.1416 273.958 50.3386C267.834 38.0906 265.826 35.0786 259.275 28.3126C250.418 19.1646 239.986 13.2206 223.686 8.03458C218.186 6.28458 211.839 4.20459 209.581 3.41159C202.833 1.04259 189.928 0.0365855 167.186 0.106586C150.248 0.158586 144.201 0.542583 138.686 1.91758ZM202.686 23.2806C204.886 24.1336 210.736 26.0576 215.686 27.5566C228.531 31.4466 240.937 38.0306 245.275 43.2616C249.087 47.8566 257.688 62.8576 256.939 63.6056C256.689 63.8556 253.369 63.4056 249.561 62.6046C238.409 60.2586 223.88 59.7206 205.686 60.9796C173.131 63.2336 165.657 66.2516 153.99 81.8546C146.577 91.7706 144.915 96.8736 144.402 111.302C144.074 120.534 144.407 126.636 145.602 133.302C149.366 154.28 149.387 154.354 155.56 166.858C158.969 173.761 169.782 184.858 177.435 189.305C185.321 193.887 198.708 196.247 216.686 196.225C239.318 196.197 267.534 192.654 278.456 188.47C280.53 187.676 282.667 187.026 283.206 187.026C283.777 187.026 284.217 191.3 284.259 197.276C284.299 202.913 284.862 217.651 285.509 230.026C286.873 256.108 286.208 277.605 283.201 304.655C280.013 333.318 277.976 342.279 271.502 356.092L267.528 364.572L260.107 368.008C249.952 372.71 241.376 372.863 232.637 368.498C227.781 366.073 226.277 364.698 224.461 361.026C221.947 355.941 220.414 344.064 220.976 334.026L221.34 327.526L228.38 325.232C235.615 322.874 244.28 317.903 247.516 314.255C250.027 311.424 249.365 307.622 246.287 307.187C244.967 307 242.942 307.307 241.787 307.868C235.43 310.953 207.276 311.083 188.503 308.112C169.675 305.133 166.746 305.265 162.741 309.276C159.072 312.951 159.12 312.619 157.164 347.884C156.157 366.053 155.458 371.01 152.883 378.257C151.2 382.991 151.206 382.986 144.939 385.254C140.272 386.942 137.974 387.079 124.34 386.48C110.391 385.868 108.54 385.566 104.005 383.166C94.5976 378.187 90.1736 365.441 88.1026 337.345C87.2616 325.934 87.2756 318.358 88.1606 306.845C90.6366 274.641 91.0786 262.333 91.1306 224.038C91.1636 200.696 91.7946 175.141 92.6746 161.538C93.4926 148.881 94.6226 130.876 95.1856 121.526C96.4766 100.059 97.5656 91.8556 101.361 75.0256C104.819 59.6936 108.485 50.0406 114.182 41.2736C118.038 35.3396 125.716 28.0256 128.089 28.0256C128.747 28.0256 130.725 27.2676 132.486 26.3406C141.483 21.6046 146.273 21.0216 173.186 21.3846C193.208 21.6546 199.545 22.0626 202.686 23.2806ZM251.864 84.4756C264.567 87.0786 276.503 91.5046 281.877 95.6036C283.713 97.0036 286.319 100.329 287.669 102.992C289.845 107.287 291.012 110.473 295.341 123.949C297.11 129.457 296.503 141.749 294.128 148.476C290.419 158.983 286.165 163.061 273.793 167.967C258.203 174.148 210.206 177.287 194.506 173.152C182.164 169.902 177.364 165.16 170.785 149.717C169.892 147.622 168.715 142.897 168.17 139.217C167.624 135.537 166.74 130.726 166.206 128.526C165.671 126.326 165.227 120.026 165.22 114.526C165.208 106.094 165.576 103.73 167.568 99.4516C170.704 92.7176 177.104 86.0256 180.409 86.0256C181.802 86.0256 184.555 85.3516 186.527 84.5276C191.009 82.6546 214.931 81.0296 229.364 81.6176C235.237 81.8566 245.362 83.1426 251.864 84.4756ZM73.1706 136.776C73.1626 138.839 72.4946 149.751 71.6856 161.026C70.7836 173.593 70.1876 197.005 70.1456 221.526C70.0826 258.148 69.6556 271.141 67.5906 299.384L66.8696 309.242L61.9016 308.583C52.8976 307.388 37.8686 301.747 33.1716 297.799C29.4076 294.635 25.6906 285.76 23.0036 273.526C20.7946 263.471 21.3976 211.66 23.9736 190.026C25.9936 173.069 26.5946 170.335 31.1166 157.526C35.0786 146.304 37.2006 142.605 41.3996 139.603C46.0156 136.302 58.1156 133.293 67.4356 133.128L73.1856 133.026L73.1706 136.776Z" fill="black"/>
<path d="M73.1706 136.776C73.1626 138.839 72.4946 149.751 71.6856 161.026C70.7836 173.593 70.1876 197.005 70.1456 221.526C70.0826 258.148 69.6556 271.141 67.5906 299.384L66.8696 309.242L61.9016 308.583C52.8976 307.388 37.8686 301.747 33.1716 297.799C29.4076 294.635 25.6906 285.76 23.0036 273.526C20.7946 263.471 21.3976 211.66 23.9736 190.026C25.9936 173.069 26.5946 170.335 31.1166 157.526C35.0786 146.304 37.2006 142.605 41.3996 139.603C46.0156 136.302 58.1156 133.293 67.4356 133.128L73.1856 133.026L73.1706 136.776Z" fill="black"/>
<path d="M202.686 23.2806C204.886 24.1336 210.736 26.0576 215.686 27.5566C228.531 31.4466 240.937 38.0306 245.275 43.2616C249.087 47.8566 257.688 62.8576 256.939 63.6056C256.689 63.8556 253.369 63.4056 249.561 62.6046C238.409 60.2586 223.88 59.7206 205.686 60.9796C173.131 63.2336 165.657 66.2516 153.99 81.8546C146.577 91.7706 144.915 96.8736 144.402 111.302C144.074 120.534 144.407 126.636 145.602 133.302C149.366 154.28 149.387 154.354 155.56 166.858C158.969 173.761 169.782 184.858 177.435 189.305C185.321 193.887 198.708 196.247 216.686 196.225C239.318 196.197 267.534 192.654 278.456 188.47C280.53 187.676 282.667 187.026 283.206 187.026C283.777 187.026 284.217 191.3 284.259 197.276C284.299 202.913 284.862 217.651 285.509 230.026C286.873 256.108 286.208 277.605 283.201 304.655C280.013 333.318 277.976 342.279 271.502 356.092L267.528 364.572L260.107 368.008C249.952 372.71 241.376 372.863 232.637 368.498C227.781 366.073 226.277 364.698 224.461 361.026C221.947 355.941 220.414 344.064 220.976 334.026L221.34 327.526L228.38 325.232C235.615 322.874 244.28 317.903 247.516 314.255C250.027 311.424 249.365 307.622 246.287 307.187C244.967 307 242.942 307.307 241.787 307.868C235.43 310.953 207.276 311.083 188.503 308.112C169.675 305.133 166.746 305.265 162.741 309.276C159.072 312.951 159.12 312.619 157.164 347.884C156.157 366.053 155.458 371.01 152.883 378.257C151.2 382.991 151.206 382.986 144.939 385.254C140.272 386.942 137.974 387.079 124.34 386.48C110.391 385.868 108.54 385.566 104.005 383.166C94.5976 378.187 90.1736 365.441 88.1026 337.345C87.2616 325.934 87.2756 318.358 88.1606 306.845C90.6366 274.641 91.0786 262.333 91.1306 224.038C91.1636 200.696 91.7946 175.141 92.6746 161.538C93.4926 148.881 94.6226 130.876 95.1856 121.526C96.4766 100.059 97.5656 91.8556 101.361 75.0256C104.819 59.6936 108.485 50.0406 114.182 41.2736C118.038 35.3396 125.716 28.0256 128.089 28.0256C128.747 28.0256 130.725 27.2676 132.486 26.3406C141.483 21.6046 146.273 21.0216 173.186 21.3846C193.208 21.6546 199.545 22.0626 202.686 23.2806Z" fill="black"/>
</g>
</svg>
